<svg width="206" height="49" viewBox="0 0 206 49" fill="none" xmlns="http://www.w3.org/2000/svg">
<rect width="205.51" height="48.7" fill="white"/>
<path d="M85.368 35.624C84.312 35.624 83.56 35.328 83.112 34.736C82.664 34.128 82.44 33.232 82.44 32.048C82.44 30.848 82.944 27.464 83.952 21.896L82.68 19.328C84.488 18.16 86.136 17.576 87.624 17.576C88.856 17.576 89.472 18.328 89.472 19.832C89.472 20.28 89.16 22.152 88.536 25.448C87.928 28.744 87.624 30.84 87.624 31.736H90.216C91.432 31.56 92.656 31.248 93.888 30.8C93.984 31.088 94.032 31.48 94.032 31.976C94.032 32.92 93.752 33.76 93.192 34.496C92.648 35.232 91.888 35.6 90.912 35.6C90.256 35.6 89.12 35.424 87.504 35.072C86.832 35.44 86.12 35.624 85.368 35.624ZM103.244 16.808C103.244 17.416 102.924 17.944 102.284 18.392C101.644 18.824 100.916 19.04 100.1 19.04C99.2839 19.04 98.6359 18.88 98.1559 18.56C97.6919 18.24 97.4599 17.808 97.4599 17.264C97.4599 16.528 97.8039 15.952 98.4919 15.536C99.1799 15.12 99.9079 14.912 100.676 14.912C101.444 14.912 102.06 15.072 102.524 15.392C103.004 15.712 103.244 16.184 103.244 16.808ZM98.5639 35.6C97.5719 35.6 96.8519 35.352 96.4039 34.856C95.9559 34.36 95.7319 33.608 95.7319 32.6C95.7319 31.576 96.2439 28.848 97.2679 24.416L95.9239 22.4C97.9239 21.2 99.4999 20.6 100.652 20.6C101.308 20.6 101.772 20.744 102.044 21.032C102.316 21.304 102.452 21.752 102.452 22.376C102.452 22.616 102.156 24.024 101.564 26.6C100.972 29.176 100.676 31.016 100.676 32.12C100.676 33.224 100.924 33.992 101.42 34.424C100.524 35.208 99.5719 35.6 98.5639 35.6ZM105.061 30.44C105.061 29.096 105.581 25.64 106.621 20.072L105.277 18.152C106.269 17.56 107.101 17.12 107.773 16.832C108.461 16.544 109.141 16.4 109.813 16.4C110.501 16.4 111.005 16.536 111.325 16.808C111.645 17.08 111.805 17.512 111.805 18.104C111.805 19.128 111.493 21.136 110.869 24.128L111.109 24.248C112.261 21.96 113.941 20.816 116.149 20.816C117.397 20.816 118.373 21.352 119.077 22.424C119.781 23.48 120.133 24.768 120.133 26.288C120.133 27.792 119.829 29.152 119.221 30.368C118.629 31.568 117.853 32.544 116.893 33.296C115.949 34.032 114.917 34.6 113.797 35C112.677 35.4 111.565 35.6 110.461 35.6C108.653 35.6 107.301 35.184 106.405 34.352C105.509 33.52 105.061 32.216 105.061 30.44ZM109.813 32.816C111.589 32.816 113.029 32.208 114.133 30.992C115.253 29.776 115.813 28.416 115.813 26.912C115.813 26.224 115.621 25.6 115.237 25.04C114.869 24.48 114.381 24.2 113.773 24.2C113.165 24.2 112.597 24.448 112.069 24.944C111.557 25.44 111.157 26.032 110.869 26.72C110.597 27.408 110.373 28.184 110.197 29.048C109.941 30.408 109.813 31.664 109.813 32.816ZM130.291 16.808C130.291 17.416 129.971 17.944 129.331 18.392C128.691 18.824 127.963 19.04 127.147 19.04C126.331 19.04 125.683 18.88 125.203 18.56C124.739 18.24 124.507 17.808 124.507 17.264C124.507 16.528 124.851 15.952 125.539 15.536C126.227 15.12 126.955 14.912 127.723 14.912C128.491 14.912 129.107 15.072 129.571 15.392C130.051 15.712 130.291 16.184 130.291 16.808ZM125.611 35.6C124.619 35.6 123.899 35.352 123.451 34.856C123.003 34.36 122.779 33.608 122.779 32.6C122.779 31.576 123.291 28.848 124.315 24.416L122.971 22.4C124.971 21.2 126.547 20.6 127.699 20.6C128.355 20.6 128.819 20.744 129.091 21.032C129.363 21.304 129.499 21.752 129.499 22.376C129.499 22.616 129.203 24.024 128.611 26.6C128.019 29.176 127.723 31.016 127.723 32.12C127.723 33.224 127.971 33.992 128.467 34.424C127.571 35.208 126.619 35.6 125.611 35.6ZM139.499 23.792C138.907 23.968 138.435 24.224 138.083 24.56C137.731 24.88 137.419 25.344 137.147 25.952C139.851 26.352 141.755 26.928 142.859 27.68C143.963 28.432 144.515 29.504 144.515 30.896C144.515 31.776 144.267 32.544 143.771 33.2C143.275 33.84 142.651 34.328 141.899 34.664C140.427 35.288 138.979 35.6 137.555 35.6C133.507 35.6 131.483 34.728 131.483 32.984C131.483 32.104 131.875 31.224 132.659 30.344C133.059 30.904 133.659 31.384 134.459 31.784C135.275 32.184 136.067 32.384 136.835 32.384C138.163 32.384 138.963 31.8 139.235 30.632C136.803 30.344 135.043 29.8 133.955 29C132.867 28.2 132.323 27.072 132.323 25.616C132.323 24.464 132.699 23.496 133.451 22.712C134.219 21.928 135.163 21.384 136.283 21.08C137.419 20.76 138.691 20.6 140.099 20.6C141.523 20.6 142.691 20.872 143.603 21.416C144.531 21.944 144.995 22.592 144.995 23.36C144.995 24.128 144.723 24.72 144.179 25.136C143.651 25.552 143.067 25.76 142.427 25.76C141.803 25.76 141.227 25.592 140.699 25.256C140.187 24.92 139.787 24.432 139.499 23.792Z" fill="black"/>
<path d="M24.4823 16.1667L36.347 22.9795C38.3966 24.1053 38.3966 27.0787 36.347 28.2046L24.4823 35.104C22.4327 36.2298 19.9501 34.7864 19.9501 32.5059V18.7937C19.9501 16.4842 22.4327 15.0408 24.4823 16.1667Z" fill="white"/>
<path d="M54.7935 7.21768C54.7935 9.38277 53.0326 11.1148 50.8964 11.1148C48.7313 11.1148 46.9992 9.3539 46.9992 7.21768C46.9992 5.05259 48.7601 3.32053 50.8964 3.32053C53.0614 3.32053 54.7935 5.08146 54.7935 7.21768Z" fill="#ED2A26"/>
<path d="M45.4403 1.99261C45.4115 3.06072 44.5166 3.89789 43.4485 3.86902C42.3804 3.84015 41.5432 2.94524 41.6009 1.87713C41.6298 0.809023 42.5247 -0.0281431 43.5928 0.000724663C44.6609 0.0295925 45.4981 0.924501 45.4403 1.99261Z" fill="#ED2A26"/>
<path d="M6.23789 42.4942C6.18015 43.7355 5.14091 44.717 3.89959 44.6592C2.65828 44.6015 1.67677 43.5623 1.73451 42.321C1.79224 41.0796 2.83149 40.0981 4.0728 40.1559C5.31412 40.2136 6.26675 41.2528 6.23789 42.4942Z" fill="#ED2A26"/>
<path d="M37.2419 20.2659C37.2419 20.3525 37.2419 20.4103 37.2419 20.4969C42.7556 23.528 46.9703 28.7531 48.5581 35.104C50.1458 31.6398 50.8675 27.7138 50.5211 23.6435C49.453 11.2303 38.7142 1.96372 26.3587 2.59882C32.3632 6.32276 36.6068 12.7026 37.2419 20.2659Z" fill="#DA1F27"/>
<path d="M4.59241 27.5984C4.70788 28.8397 4.90996 30.0521 5.19864 31.2357C8.51843 23.8744 15.6199 18.505 24.2225 17.7544C28.928 17.3503 33.4025 18.3895 37.2419 20.4969C37.2419 20.4103 37.2419 20.3525 37.2419 20.2659C36.5779 12.7026 32.3632 6.29391 26.3587 2.59883C26.0989 2.59883 25.8391 2.6277 25.5793 2.65657C12.9063 3.75355 3.49544 14.9254 4.59241 27.5984Z" fill="#ED2A26"/>
<path d="M37.2708 20.4969C38.2234 33.0832 28.8702 44.1396 16.255 45.2077C15.9952 45.2366 15.7354 45.2366 15.4756 45.2654C19.5459 47.7769 24.3957 49.0471 29.5342 48.6141C38.1368 47.8636 45.2383 42.4941 48.5581 35.1329C46.9703 28.7531 42.7845 23.528 37.2708 20.4969Z" fill="#AF1F24"/>
<path d="M37.2708 20.4969C33.4314 18.3895 28.928 17.3503 24.2514 17.7544C15.6488 18.505 8.54731 23.8744 5.22751 31.2357C6.72863 37.2113 10.4814 42.1766 15.5044 45.2654C15.7643 45.2654 16.0241 45.2366 16.2839 45.2077C28.8702 44.1396 38.2234 33.0832 37.2708 20.4969Z" fill="#C72127"/>
<path d="M23.9916 15.2141L37.4728 22.9795C39.7822 24.2786 39.7822 27.6272 37.4728 28.8974L23.9916 36.7206C21.6821 38.0196 18.8531 36.3742 18.8531 33.7472V18.1586C18.8531 15.5894 21.6821 13.9439 23.9916 15.2141Z" fill="white"/>
</svg>
