<svg width="712" height="169" viewBox="0 0 712 169" fill="none" xmlns="http://www.w3.org/2000/svg">
<g clip-path="url(#clip0_2_5)">
<rect width="711.9" height="168.7" fill="white"/>
<path d="M272.296 142.328C266.664 142.328 262.653 140.749 260.264 137.592C257.875 134.349 256.68 129.571 256.68 123.256C256.68 116.856 259.368 98.808 264.744 69.112L257.96 55.416C267.603 49.1867 276.392 46.072 284.328 46.072C290.899 46.072 294.184 50.0827 294.184 58.104C294.184 60.4933 292.52 70.4773 289.192 88.056C285.949 105.635 284.328 116.813 284.328 121.592H298.152C304.637 120.653 311.165 118.989 317.736 116.6C318.248 118.136 318.504 120.227 318.504 122.872C318.504 127.907 317.011 132.387 314.024 136.312C311.123 140.237 307.069 142.2 301.864 142.2C298.365 142.2 292.307 141.261 283.688 139.384C280.104 141.347 276.307 142.328 272.296 142.328ZM367.634 41.976C367.634 45.2187 365.927 48.0347 362.514 50.424C359.101 52.728 355.218 53.88 350.866 53.88C346.514 53.88 343.058 53.0267 340.498 51.32C338.023 49.6133 336.786 47.3093 336.786 44.408C336.786 40.4827 338.621 37.4107 342.29 35.192C345.959 32.9733 349.842 31.864 353.938 31.864C358.034 31.864 361.319 32.7173 363.794 34.424C366.354 36.1307 367.634 38.648 367.634 41.976ZM342.674 142.2C337.383 142.2 333.543 140.877 331.154 138.232C328.765 135.587 327.57 131.576 327.57 126.2C327.57 120.739 330.301 106.189 335.762 82.552L328.594 71.8C339.261 65.4 347.666 62.2 353.81 62.2C357.309 62.2 359.783 62.968 361.234 64.504C362.685 65.9547 363.41 68.344 363.41 71.672C363.41 72.952 361.831 80.4613 358.674 94.2C355.517 107.939 353.938 117.752 353.938 123.64C353.938 129.528 355.261 133.624 357.906 135.928C353.127 140.109 348.05 142.2 342.674 142.2ZM377.323 114.68C377.323 107.512 380.096 89.08 385.643 59.384L378.475 49.144C383.766 45.9867 388.203 43.64 391.787 42.104C395.456 40.568 399.083 39.8 402.667 39.8C406.336 39.8 409.024 40.5253 410.731 41.976C412.438 43.4267 413.291 45.7307 413.291 48.888C413.291 54.3493 411.627 65.0587 408.299 81.016L409.579 81.656C415.723 69.4533 424.683 63.352 436.459 63.352C443.115 63.352 448.32 66.2107 452.075 71.928C455.83 77.56 457.707 84.4293 457.707 92.536C457.707 100.557 456.086 107.811 452.843 114.296C449.686 120.696 445.547 125.901 440.427 129.912C435.392 133.837 429.888 136.867 423.915 139C417.942 141.133 412.011 142.2 406.123 142.2C396.48 142.2 389.27 139.981 384.491 135.544C379.712 131.107 377.323 124.152 377.323 114.68ZM402.667 127.352C412.139 127.352 419.819 124.109 425.707 117.624C431.68 111.139 434.667 103.885 434.667 95.864C434.667 92.1947 433.643 88.8667 431.595 85.88C429.632 82.8933 427.03 81.4 423.787 81.4C420.544 81.4 417.515 82.7227 414.699 85.368C411.968 88.0133 409.835 91.1707 408.299 94.84C406.848 98.5093 405.654 102.648 404.715 107.256C403.35 114.509 402.667 121.208 402.667 127.352ZM511.884 41.976C511.884 45.2187 510.177 48.0347 506.764 50.424C503.351 52.728 499.468 53.88 495.116 53.88C490.764 53.88 487.308 53.0267 484.748 51.32C482.273 49.6133 481.036 47.3093 481.036 44.408C481.036 40.4827 482.871 37.4107 486.54 35.192C490.209 32.9733 494.092 31.864 498.188 31.864C502.284 31.864 505.569 32.7173 508.044 34.424C510.604 36.1307 511.884 38.648 511.884 41.976ZM486.924 142.2C481.633 142.2 477.793 140.877 475.404 138.232C473.015 135.587 471.82 131.576 471.82 126.2C471.82 120.739 474.551 106.189 480.012 82.552L472.844 71.8C483.511 65.4 491.916 62.2 498.06 62.2C501.559 62.2 504.033 62.968 505.484 64.504C506.935 65.9547 507.66 68.344 507.66 71.672C507.66 72.952 506.081 80.4613 502.924 94.2C499.767 107.939 498.188 117.752 498.188 123.64C498.188 129.528 499.511 133.624 502.156 135.928C497.377 140.109 492.3 142.2 486.924 142.2ZM560.997 79.224C557.84 80.1627 555.322 81.528 553.445 83.32C551.568 85.0267 549.904 87.5013 548.453 90.744C562.874 92.8773 573.029 95.9493 578.917 99.96C584.805 103.971 587.749 109.688 587.749 117.112C587.749 121.805 586.426 125.901 583.781 129.4C581.136 132.813 577.808 135.416 573.797 137.208C565.946 140.536 558.224 142.2 550.629 142.2C529.04 142.2 518.245 137.549 518.245 128.248C518.245 123.555 520.336 118.861 524.517 114.168C526.65 117.155 529.85 119.715 534.117 121.848C538.469 123.981 542.693 125.048 546.789 125.048C553.872 125.048 558.138 121.933 559.589 115.704C546.618 114.168 537.232 111.267 531.429 107C525.626 102.733 522.725 96.7173 522.725 88.952C522.725 82.808 524.73 77.6453 528.741 73.464C532.837 69.2827 537.872 66.3813 543.845 64.76C549.904 63.0533 556.688 62.2 564.197 62.2C571.792 62.2 578.021 63.6507 582.885 66.552C587.834 69.368 590.309 72.824 590.309 76.92C590.309 81.016 588.858 84.1733 585.957 86.392C583.141 88.6107 580.026 89.72 576.613 89.72C573.285 89.72 570.213 88.824 567.397 87.032C564.666 85.24 562.533 82.6373 560.997 79.224Z" fill="black"/>
</g>
<path d="M84.8084 56.0025L125.908 79.6025C133.008 83.5025 133.008 93.8025 125.908 97.7025L84.8084 121.603C77.7084 125.503 69.1084 120.503 69.1084 112.603V65.1025C69.1084 57.1025 77.7084 52.1025 84.8084 56.0025Z" fill="white"/>
<path d="M189.808 25.0025C189.808 32.5025 183.708 38.5025 176.308 38.5025C168.808 38.5025 162.808 32.4025 162.808 25.0025C162.808 17.5025 168.908 11.5025 176.308 11.5025C183.808 11.5025 189.808 17.6025 189.808 25.0025Z" fill="#ED2A26"/>
<path d="M157.408 6.90253C157.308 10.6025 154.208 13.5025 150.508 13.4025C146.808 13.3025 143.908 10.2025 144.108 6.50251C144.208 2.80251 147.308 -0.0974897 151.008 0.00251028C154.708 0.10251 157.608 3.20253 157.408 6.90253Z" fill="#ED2A26"/>
<path d="M21.6084 147.203C21.4084 151.503 17.8084 154.903 13.5084 154.703C9.20839 154.503 5.80839 150.903 6.00839 146.603C6.20839 142.303 9.80839 138.903 14.1084 139.103C18.4084 139.303 21.7084 142.903 21.6084 147.203Z" fill="#ED2A26"/>
<path d="M129.008 70.2025C129.008 70.5025 129.008 70.7025 129.008 71.0025C148.108 81.5025 162.708 99.6025 168.208 121.603C173.708 109.603 176.208 96.0025 175.008 81.9025C171.308 38.9025 134.108 6.80249 91.3084 9.00249C112.108 21.9025 126.808 44.0025 129.008 70.2025Z" fill="#DA1F27"/>
<path d="M15.9084 95.6025C16.3084 99.9025 17.0084 104.103 18.0084 108.203C29.5084 82.7025 54.1084 64.1025 83.9084 61.5025C100.208 60.1025 115.708 63.7025 129.008 71.0025C129.008 70.7025 129.008 70.5025 129.008 70.2025C126.708 44.0025 112.108 21.8025 91.3084 9.0025C90.4084 9.0025 89.5084 9.10251 88.6084 9.20251C44.7084 13.0025 12.1084 51.7025 15.9084 95.6025Z" fill="#ED2A26"/>
<path d="M129.108 71.0025C132.408 114.603 100.008 152.903 56.3084 156.603C55.4084 156.703 54.5084 156.702 53.6084 156.802C67.7084 165.502 84.5084 169.903 102.308 168.403C132.108 165.803 156.708 147.203 168.208 121.703C162.708 99.6025 148.208 81.5025 129.108 71.0025Z" fill="#AF1F24"/>
<path d="M129.108 71.0025C115.808 63.7025 100.208 60.1025 84.0084 61.5025C54.2084 64.1025 29.6084 82.7025 18.1084 108.203C23.3084 128.903 36.3084 146.102 53.7084 156.802C54.6084 156.802 55.5084 156.703 56.4084 156.603C100.008 152.903 132.408 114.603 129.108 71.0025Z" fill="#C72127"/>
<path d="M83.1084 52.7025L129.808 79.6026C137.808 84.1026 137.808 95.7026 129.808 100.103L83.1084 127.203C75.1084 131.703 65.3084 126.003 65.3084 116.903V62.9025C65.3084 54.0025 75.1084 48.3025 83.1084 52.7025Z" fill="white"/>
<defs>
<clipPath id="clip0_2_5">
<rect width="711.9" height="168.7" fill="white"/>
</clipPath>
</defs>
</svg>
